<?xml version="1.0" encoding="UTF-8" standalone="no"?>
<!DOCTYPE svg PUBLIC "-//W3C//DTD SVG 1.1//EN" "http://www.w3.org/Graphics/SVG/1.1/DTD/svg11.dtd">
<svg xmlns="http://www.w3.org/2000/svg" xmlns:xlink="http://www.w3.org/1999/xlink" version="1.1" width="193.30101pt" height="184.991pt" viewBox="0 0 193.30101 184.991">
<g enable-background="new">
<path transform="matrix(1,0,0,-1,-203.955,643.477)" d="M 300 642 C 302.411 643.477 303.83 642.446 303.17 639.697 C 302.51 636.947 303.929 635.916 306.34 637.393 C 308.751 638.871 310.171 637.84 309.511 635.09 C 308.85 632.341 310.27 631.309 312.681 632.787 C 315.092 634.264 316.511 633.233 315.851 630.484 C 315.191 627.734 316.61 626.703 319.021 628.18 C 321.432 629.658 322.851 628.627 322.191 625.877 C 321.531 623.128 322.951 622.096 325.361 623.574 C 327.772 625.051 329.192 624.02 328.532 621.271 C 327.872 618.521 329.291 617.49 331.702 618.967 C 334.113 620.445 335.532 619.413 334.872 616.664 C 334.212 613.914 335.631 612.883 338.042 614.361 C 340.453 615.838 341.873 614.807 341.212 612.057 C 340.552 609.308 341.972 608.277 344.383 609.754 C 346.794 611.232 348.213 610.2 347.553 607.451 C 346.893 604.701 348.312 603.67 350.723 605.148 C 353.134 606.625 354.553 605.594 353.893 602.844 C 353.233 600.095 354.652 599.064 357.063 600.541 C 359.474 602.018 360.894 600.987 360.234 598.238 C 359.573 595.488 360.993 594.457 363.404 595.934 C 365.815 597.412 367.234 596.381 366.574 593.631 C 365.914 590.882 367.333 589.85 369.744 591.328 C 372.155 592.805 373.574 591.774 372.914 589.025 C 372.254 586.275 373.674 585.244 376.084 586.721 C 378.495 588.199 379.915 587.168 379.255 584.418 C 378.595 581.669 380.014 580.637 382.425 582.115 C 384.836 583.592 386.255 582.561 385.595 579.812 C 384.935 577.062 386.354 576.031 388.765 577.508 C 391.176 578.986 392.596 577.954 391.935 575.205 C 391.275 572.455 392.695 571.424 395.106 572.902 C 397.256 571.065 396.714 569.397 393.895 569.175 C 391.076 568.953 390.534 567.285 392.684 565.448 C 394.834 563.612 394.292 561.943 391.473 561.721 C 388.654 561.5 388.112 559.831 390.262 557.995 C 392.412 556.158 391.87 554.49 389.051 554.268 C 386.232 554.046 385.69 552.377 387.84 550.541 C 389.99 548.705 389.448 547.036 386.629 546.814 C 383.81 546.592 383.268 544.924 385.418 543.087 C 387.569 541.251 387.026 539.583 384.208 539.361 C 381.389 539.139 380.846 537.47 382.997 535.634 C 385.147 533.797 384.605 532.129 381.786 531.907 C 378.967 531.685 378.425 530.017 380.575 528.18 C 382.725 526.344 382.183 524.675 379.364 524.454 C 376.545 524.232 376.003 522.563 378.153 520.727 C 380.303 518.89 379.761 517.222 376.942 517 C 374.123 516.778 373.581 515.11 375.731 513.273 C 377.881 511.437 377.339 509.768 374.52 509.546 C 371.701 509.325 371.159 507.656 373.309 505.82 C 375.46 503.983 374.917 502.315 372.098 502.093 C 369.28 501.871 368.737 500.202 370.888 498.366 C 373.038 496.53 372.496 494.861 369.677 494.639 C 366.858 494.417 366.316 492.749 368.466 490.913 C 370.616 489.076 370.074 487.408 367.255 487.186 C 364.436 486.964 363.894 485.295 366.044 483.459 C 368.194 481.623 367.652 479.954 364.833 479.732 C 362.014 479.51 361.472 477.842 363.622 476.005 C 365.772 474.169 365.23 472.5 362.411 472.279 C 359.592 472.057 359.05 470.388 361.2 468.552 C 363.35 466.715 362.808 465.047 359.989 464.825 C 357.171 464.603 356.628 462.935 358.779 461.098 C 357.696 458.486 355.942 458.486 354.86 461.098 C 353.778 463.711 352.024 463.711 350.941 461.098 C 349.859 458.486 348.105 458.486 347.023 461.098 C 345.941 463.711 344.186 463.711 343.104 461.098 C 342.022 458.486 340.268 458.486 339.186 461.098 C 338.104 463.711 336.349 463.711 335.267 461.098 C 334.185 458.486 332.431 458.486 331.349 461.098 C 330.266 463.711 328.512 463.711 327.43 461.098 C 326.348 458.486 324.594 458.486 323.511 461.098 C 322.429 463.711 320.675 463.711 319.593 461.098 C 318.511 458.486 316.756 458.486 315.674 461.098 C 314.592 463.711 312.838 463.711 311.756 461.098 C 310.674 458.486 308.919 458.486 307.837 461.098 C 306.755 463.711 305.001 463.711 303.919 461.098 C 302.836 458.486 301.082 458.486 300 461.098 C 298.918 463.711 297.164 463.711 296.081 461.098 C 294.999 458.486 293.245 458.486 292.163 461.098 C 291.081 463.711 289.326 463.711 288.244 461.098 C 287.162 458.486 285.408 458.486 284.326 461.098 C 283.244 463.711 281.489 463.711 280.407 461.098 C 279.325 458.486 277.571 458.486 276.489 461.098 C 275.406 463.711 273.652 463.711 272.57 461.098 C 271.488 458.486 269.734 458.486 268.651 461.098 C 267.569 463.711 265.815 463.711 264.733 461.098 C 263.651 458.486 261.896 458.486 260.814 461.098 C 259.732 463.711 257.978 463.711 256.896 461.098 C 255.814 458.486 254.059 458.486 252.977 461.098 C 251.895 463.711 250.141 463.711 249.059 461.098 C 247.977 458.486 246.222 458.486 245.14 461.098 C 244.058 463.711 242.304 463.711 241.221 461.098 C 238.403 461.32 237.86 462.989 240.011 464.825 C 242.161 466.661 241.619 468.33 238.8 468.552 C 235.981 468.774 235.439 470.442 237.589 472.279 C 239.739 474.115 239.197 475.784 236.378 476.005 C 233.559 476.227 233.017 477.896 235.167 479.732 C 237.317 481.569 236.775 483.237 233.956 483.459 C 231.137 483.681 230.595 485.349 232.745 487.186 C 234.895 489.022 234.353 490.691 231.534 490.913 C 228.715 491.134 228.173 492.803 230.323 494.639 C 232.474 496.476 231.931 498.144 229.112 498.366 C 226.294 498.588 225.751 500.256 227.902 502.093 C 230.052 503.929 229.51 505.598 226.691 505.82 C 223.872 506.041 223.33 507.71 225.48 509.546 C 227.63 511.383 227.088 513.051 224.269 513.273 C 221.45 513.495 220.908 515.164 223.058 517 C 225.208 518.836 224.666 520.505 221.847 520.727 C 219.028 520.949 218.486 522.617 220.636 524.453 C 222.786 526.29 222.244 527.958 219.425 528.18 C 216.606 528.402 216.064 530.071 218.214 531.907 C 220.364 533.744 219.822 535.412 217.003 535.634 C 214.185 535.856 213.642 537.524 215.793 539.361 C 217.943 541.197 217.4 542.866 214.582 543.087 C 211.763 543.309 211.221 544.978 213.371 546.814 C 215.521 548.651 214.979 550.319 212.16 550.541 C 209.341 550.763 208.799 552.431 210.949 554.268 C 213.099 556.104 212.557 557.773 209.738 557.995 C 206.919 558.216 206.377 559.885 208.527 561.721 C 210.677 563.558 210.135 565.226 207.316 565.448 C 204.497 565.67 203.955 567.338 206.105 569.175 C 208.255 571.011 207.713 572.68 204.894 572.902 C 204.234 575.651 205.654 576.682 208.065 575.205 C 210.475 573.728 211.895 574.759 211.235 577.508 C 210.575 580.258 211.994 581.289 214.405 579.812 C 216.816 578.334 218.235 579.365 217.575 582.115 C 216.915 584.864 218.334 585.896 220.745 584.418 C 223.156 582.941 224.576 583.972 223.915 586.721 C 223.255 589.471 224.675 590.502 227.086 589.025 C 229.497 587.547 230.916 588.578 230.256 591.328 C 229.596 594.077 231.015 595.109 233.426 593.631 C 235.837 592.154 237.256 593.185 236.596 595.934 C 235.936 598.684 237.355 599.715 239.766 598.238 C 242.177 596.76 243.597 597.792 242.937 600.541 C 242.277 603.291 243.696 604.322 246.107 602.844 C 248.518 601.367 249.937 602.398 249.277 605.148 C 248.617 607.897 250.036 608.928 252.447 607.451 C 254.858 605.973 256.277 607.005 255.617 609.754 C 254.957 612.504 256.377 613.535 258.788 612.057 C 261.198 610.58 262.618 611.611 261.958 614.361 C 261.298 617.11 262.717 618.141 265.128 616.664 C 267.539 615.187 268.958 616.218 268.298 618.967 C 267.638 621.717 269.057 622.748 271.468 621.271 C 273.879 619.793 275.299 620.824 274.638 623.574 C 273.978 626.323 275.398 627.354 277.809 625.877 C 280.22 624.4 281.639 625.431 280.979 628.18 C 280.319 630.93 281.738 631.961 284.149 630.484 C 286.56 629.006 287.979 630.037 287.319 632.787 C 286.659 635.536 288.078 636.568 290.489 635.09 C 292.9 633.613 294.32 634.644 293.66 637.393 C 293 640.143 294.419 641.174 296.83 639.697 C 299.241 638.219 300.66 639.25 300 642 " fill="#ffff00"/>
<path transform="matrix(1,0,0,-1,-203.955,643.477)" stroke-width="1" stroke-linecap="butt" stroke-miterlimit="10" stroke-linejoin="miter" fill="none" stroke="#0000ff" d="M 300 642 C 302.411 643.477 303.83 642.446 303.17 639.697 C 302.51 636.947 303.929 635.916 306.34 637.393 C 308.751 638.871 310.171 637.84 309.511 635.09 C 308.85 632.341 310.27 631.309 312.681 632.787 C 315.092 634.264 316.511 633.233 315.851 630.484 C 315.191 627.734 316.61 626.703 319.021 628.18 C 321.432 629.658 322.851 628.627 322.191 625.877 C 321.531 623.128 322.951 622.096 325.361 623.574 C 327.772 625.051 329.192 624.02 328.532 621.271 C 327.872 618.521 329.291 617.49 331.702 618.967 C 334.113 620.445 335.532 619.413 334.872 616.664 C 334.212 613.914 335.631 612.883 338.042 614.361 C 340.453 615.838 341.873 614.807 341.212 612.057 C 340.552 609.308 341.972 608.277 344.383 609.754 C 346.794 611.232 348.213 610.2 347.553 607.451 C 346.893 604.701 348.312 603.67 350.723 605.148 C 353.134 606.625 354.553 605.594 353.893 602.844 C 353.233 600.095 354.652 599.064 357.063 600.541 C 359.474 602.018 360.894 600.987 360.234 598.238 C 359.573 595.488 360.993 594.457 363.404 595.934 C 365.815 597.412 367.234 596.381 366.574 593.631 C 365.914 590.882 367.333 589.85 369.744 591.328 C 372.155 592.805 373.574 591.774 372.914 589.025 C 372.254 586.275 373.674 585.244 376.084 586.721 C 378.495 588.199 379.915 587.168 379.255 584.418 C 378.595 581.669 380.014 580.637 382.425 582.115 C 384.836 583.592 386.255 582.561 385.595 579.812 C 384.935 577.062 386.354 576.031 388.765 577.508 C 391.176 578.986 392.596 577.954 391.935 575.205 C 391.275 572.455 392.695 571.424 395.106 572.902 C 397.256 571.065 396.714 569.397 393.895 569.175 C 391.076 568.953 390.534 567.285 392.684 565.448 C 394.834 563.612 394.292 561.943 391.473 561.721 C 388.654 561.5 388.112 559.831 390.262 557.995 C 392.412 556.158 391.87 554.49 389.051 554.268 C 386.232 554.046 385.69 552.377 387.84 550.541 C 389.99 548.705 389.448 547.036 386.629 546.814 C 383.81 546.592 383.268 544.924 385.418 543.087 C 387.569 541.251 387.026 539.583 384.208 539.361 C 381.389 539.139 380.846 537.47 382.997 535.634 C 385.147 533.797 384.605 532.129 381.786 531.907 C 378.967 531.685 378.425 530.017 380.575 528.18 C 382.725 526.344 382.183 524.675 379.364 524.454 C 376.545 524.232 376.003 522.563 378.153 520.727 C 380.303 518.89 379.761 517.222 376.942 517 C 374.123 516.778 373.581 515.11 375.731 513.273 C 377.881 511.437 377.339 509.768 374.52 509.546 C 371.701 509.325 371.159 507.656 373.309 505.82 C 375.46 503.983 374.917 502.315 372.098 502.093 C 369.28 501.871 368.737 500.202 370.888 498.366 C 373.038 496.53 372.496 494.861 369.677 494.639 C 366.858 494.417 366.316 492.749 368.466 490.913 C 370.616 489.076 370.074 487.408 367.255 487.186 C 364.436 486.964 363.894 485.295 366.044 483.459 C 368.194 481.623 367.652 479.954 364.833 479.732 C 362.014 479.51 361.472 477.842 363.622 476.005 C 365.772 474.169 365.23 472.5 362.411 472.279 C 359.592 472.057 359.05 470.388 361.2 468.552 C 363.35 466.715 362.808 465.047 359.989 464.825 C 357.171 464.603 356.628 462.935 358.779 461.098 C 357.696 458.486 355.942 458.486 354.86 461.098 C 353.778 463.711 352.024 463.711 350.941 461.098 C 349.859 458.486 348.105 458.486 347.023 461.098 C 345.941 463.711 344.186 463.711 343.104 461.098 C 342.022 458.486 340.268 458.486 339.186 461.098 C 338.104 463.711 336.349 463.711 335.267 461.098 C 334.185 458.486 332.431 458.486 331.349 461.098 C 330.266 463.711 328.512 463.711 327.43 461.098 C 326.348 458.486 324.594 458.486 323.511 461.098 C 322.429 463.711 320.675 463.711 319.593 461.098 C 318.511 458.486 316.756 458.486 315.674 461.098 C 314.592 463.711 312.838 463.711 311.756 461.098 C 310.674 458.486 308.919 458.486 307.837 461.098 C 306.755 463.711 305.001 463.711 303.919 461.098 C 302.836 458.486 301.082 458.486 300 461.098 C 298.918 463.711 297.164 463.711 296.081 461.098 C 294.999 458.486 293.245 458.486 292.163 461.098 C 291.081 463.711 289.326 463.711 288.244 461.098 C 287.162 458.486 285.408 458.486 284.326 461.098 C 283.244 463.711 281.489 463.711 280.407 461.098 C 279.325 458.486 277.571 458.486 276.489 461.098 C 275.406 463.711 273.652 463.711 272.57 461.098 C 271.488 458.486 269.734 458.486 268.651 461.098 C 267.569 463.711 265.815 463.711 264.733 461.098 C 263.651 458.486 261.896 458.486 260.814 461.098 C 259.732 463.711 257.978 463.711 256.896 461.098 C 255.814 458.486 254.059 458.486 252.977 461.098 C 251.895 463.711 250.141 463.711 249.059 461.098 C 247.977 458.486 246.222 458.486 245.14 461.098 C 244.058 463.711 242.304 463.711 241.221 461.098 C 238.403 461.32 237.86 462.989 240.011 464.825 C 242.161 466.661 241.619 468.33 238.8 468.552 C 235.981 468.774 235.439 470.442 237.589 472.279 C 239.739 474.115 239.197 475.784 236.378 476.005 C 233.559 476.227 233.017 477.896 235.167 479.732 C 237.317 481.569 236.775 483.237 233.956 483.459 C 231.137 483.681 230.595 485.349 232.745 487.186 C 234.895 489.022 234.353 490.691 231.534 490.913 C 228.715 491.134 228.173 492.803 230.323 494.639 C 232.474 496.476 231.931 498.144 229.112 498.366 C 226.294 498.588 225.751 500.256 227.902 502.093 C 230.052 503.929 229.51 505.598 226.691 505.82 C 223.872 506.041 223.33 507.71 225.48 509.546 C 227.63 511.383 227.088 513.051 224.269 513.273 C 221.45 513.495 220.908 515.164 223.058 517 C 225.208 518.836 224.666 520.505 221.847 520.727 C 219.028 520.949 218.486 522.617 220.636 524.453 C 222.786 526.29 222.244 527.958 219.425 528.18 C 216.606 528.402 216.064 530.071 218.214 531.907 C 220.364 533.744 219.822 535.412 217.003 535.634 C 214.185 535.856 213.642 537.524 215.793 539.361 C 217.943 541.197 217.4 542.866 214.582 543.087 C 211.763 543.309 211.221 544.978 213.371 546.814 C 215.521 548.651 214.979 550.319 212.16 550.541 C 209.341 550.763 208.799 552.431 210.949 554.268 C 213.099 556.104 212.557 557.773 209.738 557.995 C 206.919 558.216 206.377 559.885 208.527 561.721 C 210.677 563.558 210.135 565.226 207.316 565.448 C 204.497 565.67 203.955 567.338 206.105 569.175 C 208.255 571.011 207.713 572.68 204.894 572.902 C 204.234 575.651 205.654 576.682 208.065 575.205 C 210.475 573.728 211.895 574.759 211.235 577.508 C 210.575 580.258 211.994 581.289 214.405 579.812 C 216.816 578.334 218.235 579.365 217.575 582.115 C 216.915 584.864 218.334 585.896 220.745 584.418 C 223.156 582.941 224.576 583.972 223.915 586.721 C 223.255 589.471 224.675 590.502 227.086 589.025 C 229.497 587.547 230.916 588.578 230.256 591.328 C 229.596 594.077 231.015 595.109 233.426 593.631 C 235.837 592.154 237.256 593.185 236.596 595.934 C 235.936 598.684 237.355 599.715 239.766 598.238 C 242.177 596.76 243.597 597.792 242.937 600.541 C 242.277 603.291 243.696 604.322 246.107 602.844 C 248.518 601.367 249.937 602.398 249.277 605.148 C 248.617 607.897 250.036 608.928 252.447 607.451 C 254.858 605.973 256.277 607.005 255.617 609.754 C 254.957 612.504 256.377 613.535 258.788 612.057 C 261.198 610.58 262.618 611.611 261.958 614.361 C 261.298 617.11 262.717 618.141 265.128 616.664 C 267.539 615.187 268.958 616.218 268.298 618.967 C 267.638 621.717 269.057 622.748 271.468 621.271 C 273.879 619.793 275.299 620.824 274.638 623.574 C 273.978 626.323 275.398 627.354 277.809 625.877 C 280.22 624.4 281.639 625.431 280.979 628.18 C 280.319 630.93 281.738 631.961 284.149 630.484 C 286.56 629.006 287.979 630.037 287.319 632.787 C 286.659 635.536 288.078 636.568 290.489 635.09 C 292.9 633.613 294.32 634.644 293.66 637.393 C 293 640.143 294.419 641.174 296.83 639.697 C 299.241 638.219 300.66 639.25 300 642 "/>
</g>
</svg>
